<svg xmlns="http://www.w3.org/2000/svg" viewBox="0 0 40 40"><path fill="#dff0fe" d="M14.5,36.5v-0.041c1.088-0.174,3-1.04,3-4.959v-8H14c-4.687,0-8.5-4.486-8.5-10V6.75 c0-2.138-1.306-3.911-3-4.207V2.5h2.25c1.62,0,3.108,1.205,3.981,3.224C9.235,6.833,9.5,8.136,9.5,9.5v3c0,4.411,2.58,8,5.75,8 h2.25v-13c0-3.919-1.912-4.785-3-4.959V2.5h11v0.041c-1.088,0.174-3,1.04-3,4.959v13h2.25c3.17,0,5.75-3.589,5.75-8v-3 c0-1.364,0.265-2.667,0.765-3.768C32.142,3.705,33.63,2.5,35.25,2.5h2.25v0.043c-1.694,0.296-3,2.069-3,4.207v6.75 c0,5.514-3.813,10-8.5,10h-3.5v8c0,3.919,1.912,4.785,3,4.959V36.5H14.5z"/><path fill="#4788c7" d="M35.547,3C34.606,3.87,34,5.227,34,6.75v6.75c0,5.238-3.589,9.5-8,9.5h-3h-1v1v7.5 c0,2.216,0.617,3.653,1.493,4.5h-6.985C17.383,35.153,18,33.716,18,31.5V24v-1h-1h-3c-4.411,0-8-4.262-8-9.5V6.75 C6,5.227,5.394,3.87,4.453,3H4.75c1.393,0,2.742,1.12,3.53,2.939C8.751,6.976,9,8.207,9,9.5v3c0,4.687,2.804,8.5,6.25,8.5H17h1v-1 V7.5c0-2.216-0.617-3.653-1.493-4.5h6.985C22.617,3.847,22,5.284,22,7.5V20v1h1h1.75c3.446,0,6.25-3.813,6.25-8.5v-3 c0-1.293,0.249-2.524,0.728-3.578C32.508,4.12,33.857,3,35.25,3H35.547 M38,2h-2.75c-1.875,0-3.525,1.41-4.44,3.525 C30.285,6.68,30,8.045,30,9.5v3c0,4.14-2.355,7.5-5.25,7.5H23V7.5C23,4.343,24.343,3,26,3V2H14v1c1.657,0,3,1.343,3,4.5V20h-1.75 C12.355,20,10,16.64,10,12.5v-3c0-1.455-0.285-2.82-0.81-3.975C8.275,3.41,6.625,2,4.75,2H2v1c1.65,0,3,1.68,3,3.75 c0,0.105,0,6.75,0,6.75C5,19.305,9.035,24,14,24h3v7.5c0,3.157-1.343,4.5-3,4.5v1h12v-1c-1.657,0-3-1.343-3-4.5V24h3 c4.965,0,9-4.695,9-10.5c0,0,0-6.645,0-6.75C35,4.68,36.35,3,38,3V2L38,2z"/><path fill="#4788c7" d="M2.5 3h-1C1.225 3 1 2.775 1 2.5v0C1 2.225 1.225 2 1.5 2h1C2.775 2 3 2.225 3 2.5v0C3 2.775 2.775 3 2.5 3zM38.5 3h-1C37.225 3 37 2.775 37 2.5v0C37 2.225 37.225 2 37.5 2h1C38.775 2 39 2.225 39 2.5v0C39 2.775 38.775 3 38.5 3zM26.5 3h-1C25.225 3 25 2.775 25 2.5v0C25 2.225 25.225 2 25.5 2h1C26.775 2 27 2.225 27 2.5v0C27 2.775 26.775 3 26.5 3zM14.5 3h-1C13.225 3 13 2.775 13 2.5v0C13 2.225 13.225 2 13.5 2h1C14.775 2 15 2.225 15 2.5v0C15 2.775 14.775 3 14.5 3zM26.5 37h-1c-.275 0-.5-.225-.5-.5l0 0c0-.275.225-.5.5-.5h1c.275 0 .5.225.5.5l0 0C27 36.775 26.775 37 26.5 37zM14.5 37h-1c-.275 0-.5-.225-.5-.5l0 0c0-.275.225-.5.5-.5h1c.275 0 .5.225.5.5l0 0C15 36.775 14.775 37 14.5 37z"/></svg>